<svg xmlns="http://www.w3.org/2000/svg" viewBox="0 0 212 189" width="212" height="189">
  <defs>
    <linearGradient id="arb-bg" x1="0%" y1="0%" x2="100%" y2="100%">
      <stop offset="0%" style="stop-color:#1B4ADD"/>
      <stop offset="100%" style="stop-color:#28A0F0"/>
    </linearGradient>
  </defs>
  <rect width="212" height="189" rx="24" fill="url(#arb-bg)"/>
  <g transform="translate(34,32)">
    <path d="M14.5 114.3l8.8-14.2 8.9 14.2H46L25.7 82.1l19.3-30.6h-13.6l-8.1 13.2-8.1-13.2H1.7l19.2 30.4L1.7 114.3h12.8z" fill="white"/>
    <path d="M49.5 51.5h10.4v62.8H49.5V51.5z" fill="white" opacity="0.8"/>
    <path d="M62.5 58.6l15.6 27.3 15.6-27.3h11.8v55.7h-10.4V78.8L79.8 105h-3.2L61.3 78.7v35.6H50.9V58.6h11.6z" fill="white"/>
    <path d="M120.6 67.1c0-5.8 4.4-9.2 11.5-9.2 4.1 0 7.3.9 9.6 2.7l-2.8 8.1c-1.7-1.2-3.7-1.8-5.9-1.8-2.9 0-4.3 1.3-4.3 3.8v2.2h12v8.5h-12v33.3h-10.1V67.1z" fill="white" opacity="0.9"/>
  </g>
</svg>