<svg xmlns="http://www.w3.org/2000/svg" viewBox="0 0 212 189" width="212" height="189">
  <defs>
    <linearGradient id="bsc-bg" x1="0%" y1="0%" x2="100%" y2="100%">
      <stop offset="0%" style="stop-color:#F3BA2F"/>
      <stop offset="100%" style="stop-color:#F0B90B"/>
    </linearGradient>
  </defs>
  <rect width="212" height="189" rx="24" fill="url(#bsc-bg)"/>
  <g transform="translate(50,24)">
    <path d="M55.7 42.5l18.8-18.8L93.3 5l18.8 18.8 18.8 18.8-18.8 18.8L93.3 80l-10.8-10.8L55.7 42.5zM15 42.5l18.8-18.8L52.6 5l10.8 10.8L44.6 34.6 33.8 45.4 15 64.2 15 42.5zM96.4 42.5l18.8-18.8L134 5l18.8 18.8-18.8 18.8L115.2 61l18.8 18.8L152.8 61l18.8-18.8L171.5 61l-18.8 18.8L134 98.6l-18.8-18.8L96.4 61l-16.2 16.2-.2.2-18.6 18.6L42.6 77.3l18.8-18.8L80.2 39.7 96.4 42.5zM55.7 42.5l18.8-18.8L93.3 5l18.8 18.8L93.3 42.5 74.5 23.7 55.7 42.5z" fill="white"/>
    <path d="M93.3 5l18.8 18.8-18.8 18.8-18.8-18.8L93.3 5zm0 88.8l18.8 18.8 18.8-18.8L112.1 75 93.3 93.8zm-40.7-51.3l18.8 18.8-18.8 18.8-18.8-18.8 18.8-18.8zm81.4 0l18.8 18.8-18.8 18.8-18.8-18.8 18.8-18.8z" fill="white" opacity="0.9"/>
  </g>
</svg>