<svg xmlns="http://www.w3.org/2000/svg" viewBox="0 0 212 189" width="212" height="189">
  <defs>
    <linearGradient id="mm-bg" x1="0%" y1="0%" x2="100%" y2="100%">
      <stop offset="0%" style="stop-color:#E17726"/>
      <stop offset="100%" style="stop-color:#F6851B"/>
    </linearGradient>
  </defs>
  <rect width="212" height="189" rx="24" fill="url(#mm-bg)"/>
  <g transform="translate(50,28) scale(0.52)">
    <path d="M197.6 0L122.2 56.1l14-33L197.6 0z" fill="#E2761B" stroke="#E2761B" stroke-width="0.5"/>
    <path d="M16.7 0l74.4 56.6L77.8 23 16.7 0z" fill="#E4761B" stroke="#E4761B" stroke-width="0.5"/>
    <path d="M169.1 137.3l-20 30.7-42.8 11.8-43.3-11.8-19.5-30.7L0 96.8l17-53.7L63 32.5l31.6 7.5h22.1l32.1-7.5 46 10.6 17 53.7-42.6 40.5z" fill="#763D16"/>
    <path d="M169.1 137.3l-20 30.7-42.8 11.8V32.5H106l31.6 7.5 46 10.6 17 53.7-31.5 33z" fill="#82431D"/>
    <path d="M107.3 94.5l-11.2 16.8-35.2-1.6L47 74l60.3 20.5z" fill="#E2761B"/>
    <path d="M167.3 74l-14.1 35.7-35.2 1.6-11-16.8L167.3 74z" fill="#F6851B"/>
    <path d="M107.3 116.4l5.4 24.4-27.2-7.8-2.2-22.4 24 5.8z" fill="#D7C1B3"/>
    <path d="M130.8 140.8l5.4-24.4 24-5.8-3.6 22.4-25.8 7.8z" fill="#C0AD9E"/>
    <path d="M108.9 172.5l27.2-7.8 20 30.7-3.2-32.8-44-10.6v20.5z" fill="#D7C1B3"/>
    <path d="M107.3 151.9v20.6l-42.8-11.8-3 32.8 19.5-30.7 26.3-10.9z" fill="#C0AD9E"/>
  </g>
</svg>