<svg xmlns="http://www.w3.org/2000/svg" viewBox="0 0 212 189" width="212" height="189">
  <defs>
    <linearGradient id="ph-bg" x1="0%" y1="0%" x2="100%" y2="100%">
      <stop offset="0%" style="stop-color:#534BB1"/>
      <stop offset="100%" style="stop-color:#8B5CF6"/>
    </linearGradient>
  </defs>
  <rect width="212" height="189" rx="24" fill="url(#ph-bg)"/>
  <g transform="translate(32,22) scale(0.8)">
    <path d="M110.5 16.9C91.1 29.5 59.5 53.7 31.2 90.5c-7.2 9.4-13.3 18.7-18.3 27.7-3.2 5.8-5.7 11.3-7.3 16.6-2.5 8.3-1.3 15.3 3.7 20.1 4.2 4.1 10.3 5.7 17.3 4.6 13.2-2.1 28.3-13.8 40.6-30.6 18.9-25.8 28.6-55.3 24.3-78.5-2.1-11.5-7.3-20.5-14.9-25.8-9.2-6.5-22.1-6.8-34.8-.1l.1-.1c9.6-5.7 20.9-6.9 30.1-3.2 7.5 3 13.3 9.3 16.1 17.5 4 11.7 2.9 26.6-2.6 42.8-5.9 17.3-16 34.2-28 47.7-13.2 14.9-27.3 24.9-38.7 27.1-6.7 1.3-11.7.3-15-2.6-2.7-2.4-3.9-6.1-3.3-10.8 1-7.7 5.1-17.7 11.6-28.8 5.6-9.5 12.4-18.7 19.7-27 8.7-10 17.8-18.1 26.4-23.5 6.1-3.9 11.7-6.1 16.5-6.5 3.7-.3 6.8.7 9 2.8 2.1 2 3.3 5.3 3.3 9.6 0 9.8-4.3 24.1-12.3 39.2-8.2 15.5-19.8 29.8-32.9 39.2-7.5 5.4-14.8 9-21.3 10.4-4.6 1-8.4.5-11.2-1.3 5.1.3 10.7-1.5 16.7-5.3 12.5-7.9 25-22.1 35.3-39.7 7.6-13 13.1-26.7 15.3-39 1.1-6.1 1.3-11.7.4-16.4-.9-4.5-2.9-8-5.8-10.1-3.3-2.5-7.5-3.1-12.2-1.8-6.5 1.7-13.9 6.3-21.3 13.2z" fill="white"/>
  </g>
</svg>