<svg xmlns="http://www.w3.org/2000/svg" viewBox="0 0 212 189" width="212" height="189">
  <defs>
    <linearGradient id="sol-bg1" x1="0%" y1="0%" x2="100%" y2="100%">
      <stop offset="0%" style="stop-color:#9945FF"/>
      <stop offset="50%" style="stop-color:#14F195"/>
      <stop offset="100%" style="stop-color:#14F195"/>
    </linearGradient>
  </defs>
  <rect width="212" height="189" rx="24" fill="url(#sol-bg1)"/>
  <g transform="translate(42,44)">
    <path d="M40.2 31.5c1.6-1.7 3.8-2.6 6.1-2.6h98.3c3.8 0 5.7 4.6 3 7.3l-19.9 20.6c-1.6 1.7-3.8 2.6-6.1 2.6H23.3c-3.8 0-5.7-4.6-3-7.3l19.9-20.6z" fill="white"/>
    <path d="M40.2 72.8c1.6-1.7 3.8-2.6 6.1-2.6h98.3c3.8 0 5.7 4.6 3 7.3l-19.9 20.6c-1.6 1.7-3.8 2.6-6.1 2.6H23.3c-3.8 0-5.7-4.6-3-7.3l19.9-20.6z" fill="white" opacity="0.7"/>
    <path d="M40.2 114.1c1.6-1.7 3.8-2.6 6.1-2.6h98.3c3.8 0 5.7 4.6 3 7.3l-19.9 20.6c-1.6 1.7-3.8 2.7-6.1 2.7H23.3c-3.8 0-5.7-4.6-3-7.3l19.9-20.7z" fill="white" opacity="0.4"/>
  </g>
</svg>