<svg xmlns="http://www.w3.org/2000/svg" viewBox="0 0 200 200" width="200" height="200">
  <defs>
    <linearGradient id="mmGrad" x1="0" y1="0" x2="1" y2="1">
      <stop offset="0%" stop-color="#F6851B"/>
      <stop offset="50%" stop-color="#E2761B"/>
      <stop offset="100%" stop-color="#CD6116"/>
    </linearGradient>
  </defs>
  <rect width="200" height="200" rx="36" fill="#FFFFFF"/>
  
  <!-- Fox head - polygonal -->
  <g transform="translate(35,20) scale(0.95)">
    <!-- Main head shape -->
    <path d="M63 5L38 45l-15 10-18 35L0 95l8 45 5 10 15 5 22-12 18 5 22-12 18 5 24 10 12-8-5-10 10-42-5-45-18-30-10-16L63 5z" fill="url(#mmGrad)"/>
    
    <!-- Darker sides (ears) -->
    <path d="M63 5L40 42l-15 8-18 35L2 93l-2 8 5-3 18-22 15-8 12-5 13-18 8-28-8-20z" fill="#CD6116"/>
    <path d="M63 5L86 30l8 28 13 18 12 5 15 8 18 22 5 3-2-8-5-43-18-30-10-16-17-8z" fill="#CD6116"/>
    
    <!-- Center nose/muzzle -->
    <path d="M45 88l18 12 18-12-3-15-15-12-15 12-3 15z" fill="#FFE8C8"/>
    
    <!-- Nose tip -->
    <path d="M56 85l8 8 8-8-4-4-4-2-4 2-4 4z" fill="#1A1A1A"/>
    
    <!-- Eyes -->
    <path d="M38 72l12-6 4 8-8 6-8-8z" fill="#1A1A1A"/>
    <path d="M72 72l-12-6-4 8 8 6 8-8z" fill="#1A1A1A"/>
    
    <!-- Eye shine -->
    <circle cx="46" cy="70" r="2" fill="white"/>
    <circle cx="68" cy="70" r="2" fill="white"/>
    
    <!-- Top highlights -->
    <path d="M63 10l10 25 8-5-6-20-12 0z" fill="#F5A623" opacity="0.4"/>
    <path d="M63 10l-10 25-8-5 6-20 12 0z" fill="#F5A623" opacity="0.4"/>
  </g>
</svg>