<svg xmlns="http://www.w3.org/2000/svg" viewBox="0 0 200 200" width="200" height="200">
  <defs>
    <linearGradient id="phBg" x1="0" y1="0" x2="1" y2="1">
      <stop offset="0%" stop-color="#7C3AED"/>
      <stop offset="100%" stop-color="#A855F7"/>
    </linearGradient>
  </defs>
  <rect width="200" height="200" rx="36" fill="url(#phBg)"/>
  <path d="M100 32C68 32 42 58 42 90v48c0 17 14 30 30 30h8c5 0 9-4 9-9v-8c0-5-4-9-9-9h-5c-7 0-12-6-12-13v-39c0-21 17-38 38-38s37 17 37 38v39c0 7-5 13-12 13h-5c-5 0-9 4-9 9v8c0 5 4 9 9 9h8c17 0 30-13 30-30V90c0-32-26-58-58-58z" fill="white"/>
  <circle cx="85" cy="90" r="8" fill="#7C3AED"/>
  <circle cx="115" cy="90" r="8" fill="#7C3AED"/>
  <ellipse cx="100" cy="108" rx="10" ry="7" fill="none" stroke="#7C3AED" stroke-width="3" stroke-linecap="round"/>
</svg>