<svg xmlns="http://www.w3.org/2000/svg" viewBox="0 0 142 137" width="142" height="137">
  <rect width="142" height="137" rx="24" fill="#AB9FF2"/>
  <g transform="translate(21,8)">
    <path d="M50 8C30 8 14 24 14 44v30c0 12 8 22 20 22h4c3 0 6-2 6-5v-5c0-3-2-5-6-5h-3c-4 0-7-4-7-8V44c0-12 10-22 22-22s22 10 22 22v28c0 4-3 8-7 8h-3c-3 0-6 2-6 5v5c0 3 3 5 6 5h4c12 0 20-10 20-22V44c0-20-14-36-32-36z" fill="white"/>
    <circle cx="38" cy="44" r="5" fill="#AB9FF2"/>
    <circle cx="62" cy="44" r="5" fill="#AB9FF2"/>
    <circle cx="40" cy="42" r="2" fill="white"/>
    <circle cx="64" cy="42" r="2" fill="white"/>
    <path d="M42 58 Q50 66 58 58" fill="none" stroke="#AB9FF2" stroke-width="2.5" stroke-linecap="round"/>
  </g>
</svg>